<?xml version="1.0" encoding="UTF-8" standalone="no"?>
<!-- Created with Inkscape (http://www.inkscape.org/) -->

<svg
   xmlns:dc="http://purl.org/dc/elements/1.1/"
   xmlns:cc="http://creativecommons.org/ns#"
   xmlns:rdf="http://www.w3.org/1999/02/22-rdf-syntax-ns#"
   xmlns:svg="http://www.w3.org/2000/svg"
   xmlns="http://www.w3.org/2000/svg"
   xmlns:xlink="http://www.w3.org/1999/xlink"
   xmlns:sodipodi="http://sodipodi.sourceforge.net/DTD/sodipodi-0.dtd"
   xmlns:inkscape="http://www.inkscape.org/namespaces/inkscape"
   inkscape:version="0.92.3 (2405546, 2018-03-11)"
   sodipodi:docname="fg.svg"
   id="svg3895"
   height="1024"
   width="1024"
   version="1.0">
  <sodipodi:namedview
     inkscape:current-layer="svg3895"
     inkscape:window-maximized="1"
     inkscape:window-y="0"
     inkscape:window-x="0"
     inkscape:cy="299.33518"
     inkscape:cx="816.36285"
     inkscape:zoom="0.39333333"
     inkscape:snap-page="true"
     inkscape:snap-center="true"
     inkscape:snap-object-midpoints="true"
     inkscape:snap-midpoints="true"
     inkscape:snap-smooth-nodes="true"
     inkscape:snap-intersection-paths="true"
     inkscape:object-paths="true"
     inkscape:snap-bbox-midpoints="true"
     inkscape:bbox-nodes="true"
     inkscape:bbox-paths="true"
     inkscape:snap-bbox-edge-midpoints="true"
     inkscape:snap-bbox="true"
     inkscape:guide-bbox="true"
     showguides="true"
     showgrid="false"
     id="namedview22"
     inkscape:window-height="1055"
     inkscape:window-width="2560"
     inkscape:pageshadow="2"
     inkscape:pageopacity="0"
     guidetolerance="10"
     gridtolerance="10"
     objecttolerance="10"
     borderopacity="1"
     bordercolor="#666666"
     pagecolor="#ffffff">
    <sodipodi:guide
       position="512,512"
       orientation="0,1"
       id="guide4551"
       inkscape:locked="false"
       inkscape:label="512"
       inkscape:color="rgb(0,0,255)" />
  </sodipodi:namedview>
  <metadata
     id="metadata24">
    <rdf:RDF>
      <cc:Work
         rdf:about="">
        <dc:format>image/svg+xml</dc:format>
        <dc:type
           rdf:resource="http://purl.org/dc/dcmitype/StillImage" />
        <dc:title></dc:title>
      </cc:Work>
    </rdf:RDF>
  </metadata>
  <defs
     id="defs3897">
    <linearGradient
       inkscape:collect="always"
       xlink:href="#linearGradient7333"
       id="linearGradient7327"
       x1="129.4005"
       y1="129.40051"
       x2="1108.3412"
       y2="1108.3412"
      gradientUnits="userSpaceOnUse" >
      <stop
        id="stop7329"
        offset="0"
        style="stop-color:#000000;stop-opacity:0.21745098" />
      <stop
        id="stop7331"
        offset="1"
        style="stop-color:#000000;stop-opacity:0.043" />
    </linearGradient>
  </defs>
  <path
     style="fill:url(#linearGradient7327);fill-opacity:1;fill-rule:nonzero;stroke:none;stroke-width:1"
     d="m 511.99219,129.40039 c -193.72296,-4.60874 -371.10071,159.70883 -381.47614,353.16248 -11.53042,125.32083 46.686,249.64348 141.56207,330.21252 264.90304,263.99851 527.57608,530.37411 794.28318,792.56091 144.48,126.7912 383.4289,116.2202 516.1739,-22.7982 139.0114,-132.7316 149.5915,-371.6553 22.8303,-516.1391 C 1327.1338,784.05722 1045.5497,504.87679 764.93835,224.9398 695.92983,163.64361 604.30821,128.99261 511.99219,129.40039 Z"
     id="path7031"
     inkscape:connector-curvature="0" />
  <path
     inkscape:connector-curvature="0"
     id="path4592"
     d="M 511.99219,129.40051 C 300.70116,129.40051 129.4005,300.69794 129.4005,512 c 0,211.30208 171.30066,382.5995 382.59169,382.5995 211.30474,0 382.60731,-171.29742 382.60731,-382.5995 0,-211.30206 -171.30257,-382.59949 -382.60731,-382.59949 z m 0,98.89786 c 156.68815,0 283.7089,127.01331 283.7089,283.70163 0,65.72984 -22.36699,126.23975 -59.90037,174.34957 L 337.6563,288.20151 c 48.10349,-37.53229 108.61101,-59.90314 174.33589,-59.90314 z M 288.19928,337.65044 686.3437,735.79849 C 638.24021,773.33078 577.73087,795.687 511.99219,795.687 355.31781,795.687 228.29891,668.6745 228.29891,512 c 0,-65.74363 22.36697,-126.25356 59.90037,-174.34956 z"
     style="fill:#f44336;fill-opacity:1;fill-rule:nonzero;stroke:none;stroke-width:1" />
</svg>
